<svg xmlns="http://www.w3.org/2000/svg" viewBox="0 0 800 600" width="800" height="600" preserveAspectRatio="xMidYMid slice"><defs><linearGradient id="sky" x1="0" y1="0" x2="0" y2="1"><stop offset="0" stop-color="#dfeae4"/><stop offset=".45" stop-color="#efeee0"/><stop offset=".78" stop-color="#f7e3bd"/><stop offset="1" stop-color="#f2c987"/></linearGradient>
<radialGradient id="sun"><stop offset="0" stop-color="#fff6dc" stop-opacity="1"/><stop offset=".3" stop-color="#fff6dc" stop-opacity=".5"/><stop offset="1" stop-color="#fff6dc" stop-opacity="0"/></radialGradient>
<linearGradient id="wat" x1="0" y1="0" x2="0" y2="1"><stop offset="0" stop-color="#f1d29a"/><stop offset="1" stop-color="#8fc7ae"/></linearGradient>
<linearGradient id="hg" x1="0" y1="0" x2="1" y2="1"><stop offset="0" stop-color="#0b3d2d"/><stop offset="1" stop-color="#1c7a5c"/></linearGradient>
<linearGradient id="warm" x1="0" y1="0" x2="1" y2="1"><stop offset="0" stop-color="#f7d08a"/><stop offset="1" stop-color="#e58f57"/></linearGradient>
<linearGradient id="fade" x1="0" y1="0" x2="0" y2="1"><stop offset="0" stop-color="#fff" stop-opacity=".35"/><stop offset="1" stop-color="#fff" stop-opacity="0"/></linearGradient>
<filter id="sh" x="-25%" y="-25%" width="150%" height="160%"><feDropShadow dx="0" dy="16" stdDeviation="16" flood-color="#021a12" flood-opacity=".38"/></filter></defs><rect width="800" height="600" fill="url(#sky)"/><circle cx="560" cy="438" r="270" fill="url(#sun)"/><circle cx="560" cy="444" r="39" fill="#fff6dc"/><rect x="403.0" y="376.3" width="51.1" height="91.7" rx="5" fill="#14604a"/><rect x="460.1" y="357.6" width="51.1" height="110.4" rx="5" fill="#0b3d2d"/><rect x="517.3" y="313.4" width="51.1" height="154.6" rx="5" fill="#14604a"/><rect x="574.4" y="314.6" width="51.1" height="153.4" rx="5" fill="#0b3d2d"/><rect x="631.6" y="265.8" width="51.1" height="202.2" rx="5" fill="#14604a"/><rect x="688.7" y="250.4" width="51.1" height="217.6" rx="5" fill="#0b3d2d"/><rect x="745.9" y="247.2" width="51.1" height="220.8" rx="5" fill="#14604a"/><rect y="468" width="800" height="132" fill="url(#wat)"/><rect x="0" y="482" width="60" height="3" rx="1.5" fill="#fff" opacity=".18"/><rect x="97" y="497" width="101" height="3" rx="1.5" fill="#fff" opacity=".18"/><rect x="194" y="511" width="142" height="3" rx="1.5" fill="#fff" opacity=".18"/><rect x="291" y="526" width="183" height="3" rx="1.5" fill="#fff" opacity=".18"/><rect x="388" y="541" width="224" height="3" rx="1.5" fill="#fff" opacity=".18"/><rect x="485" y="555" width="85" height="3" rx="1.5" fill="#fff" opacity=".18"/><rect x="582" y="570" width="126" height="3" rx="1.5" fill="#fff" opacity=".18"/><rect x="39" y="585" width="167" height="3" rx="1.5" fill="#fff" opacity=".18"/><rect x="136" y="599" width="208" height="3" rx="1.5" fill="#fff" opacity=".18"/><g filter="url(#sh)" transform="translate(96.0 72.0)"><rect width="448.00000000000006" height="372.0" rx="20" fill="#fff"/><path d="M0 60V20a20 20 0 0 1 20-20h408.00000000000006a20 20 0 0 1 20 20v40Z" fill="#0b3d2d"/><rect x="27" y="20" width="134" height="15" rx="7" fill="#fff" opacity=".9"/><rect x="36" y="78" width="46" height="61" rx="9" fill="#eef3f0"/><rect x="90" y="78" width="46" height="61" rx="9" fill="#eef3f0"/><rect x="143" y="78" width="46" height="61" rx="9" fill="#f0a86a"/><rect x="197" y="78" width="46" height="61" rx="9" fill="#eef3f0"/><rect x="251" y="78" width="46" height="61" rx="9" fill="#eef3f0"/><rect x="305" y="78" width="46" height="61" rx="9" fill="#f0a86a"/><rect x="358" y="78" width="46" height="61" rx="9" fill="#eef3f0"/><rect x="36" y="147" width="46" height="61" rx="9" fill="#eef3f0"/><rect x="90" y="147" width="46" height="61" rx="9" fill="#eef3f0"/><rect x="143" y="147" width="46" height="61" rx="9" fill="#e9b54a"/><rect x="197" y="147" width="46" height="61" rx="9" fill="#eef3f0"/><rect x="251" y="147" width="46" height="61" rx="9" fill="#f0a86a"/><rect x="305" y="147" width="46" height="61" rx="9" fill="#eef3f0"/><rect x="358" y="147" width="46" height="61" rx="9" fill="#eef3f0"/><rect x="36" y="216" width="46" height="61" rx="9" fill="#eef3f0"/><rect x="90" y="216" width="46" height="61" rx="9" fill="#eef3f0"/><rect x="143" y="216" width="46" height="61" rx="9" fill="#17654c"/><rect x="197" y="216" width="46" height="61" rx="9" fill="#eef3f0"/><rect x="251" y="216" width="46" height="61" rx="9" fill="#eef3f0"/><rect x="305" y="216" width="46" height="61" rx="9" fill="#17654c"/><rect x="358" y="216" width="46" height="61" rx="9" fill="#eef3f0"/><rect x="36" y="285" width="46" height="61" rx="9" fill="#eef3f0"/><rect x="90" y="285" width="46" height="61" rx="9" fill="#eef3f0"/><rect x="143" y="285" width="46" height="61" rx="9" fill="#f0a86a"/><rect x="197" y="285" width="46" height="61" rx="9" fill="#eef3f0"/><rect x="251" y="285" width="46" height="61" rx="9" fill="#eef3f0"/><rect x="305" y="285" width="46" height="61" rx="9" fill="#eef3f0"/><rect x="358" y="285" width="46" height="61" rx="9" fill="#eef3f0"/></g><g filter="url(#sh)"><rect x="496.0" y="300.0" width="170" height="64" rx="32" fill="#fff"/><path d="M644.0 362.0 l8 16 l-22 -14Z" fill="#fff"/></g><circle cx="565" cy="332" r="4.5" fill="#0b3d2d" opacity="0.35"/><circle cx="581" cy="332" r="4.5" fill="#0b3d2d" opacity="0.65"/><circle cx="597" cy="332" r="4.5" fill="#0b3d2d" opacity="0.95"/><g transform="translate(576.0 84.00000000000001) rotate(4 60 114)" filter="url(#sh)"><rect width="120.0" height="228.0" rx="18" fill="#0a1f18"/><rect x="5" y="5" width="110" height="218" rx="14" fill="#fff"/><rect x="43" y="8" width="34" height="6" rx="3" fill="#0a1f18"/><circle cx="24" cy="31" r="8" fill="url(#hg)"/><rect x="38" y="26" width="43" height="4" rx="2" fill="#c9d8d0"/><rect x="38" y="34" width="29" height="3" rx="1" fill="#dce7e1"/><rect x="10" y="48" width="101" height="96" rx="7" fill="url(#warm)"/><circle cx="60" cy="94" r="19" fill="#fff" opacity=".35"/><path transform="translate(19.2 155.76) scale(5.3999999999999995)" fill="#e9b54a" d="M0 .9C-1.2-.1-.6-.9 0-.35.6-.9 1.2-.1 0 .9Z"/><circle cx="36" cy="156" r="5" fill="none" stroke="#0b3d2d" stroke-width="3"/><rect x="12" y="168" width="72" height="4" rx="2" fill="#c9d8d0"/><rect x="12" y="176" width="48" height="4" rx="2" fill="#dce7e1"/></g><path transform="translate(80.0 60.0) scale(16)" opacity="0.8" fill="#fff" d="M0-1C.1-.2.2-.1 1 0 .2.1.1.2 0 1-.1.2-.2.1-1 0-.2-.1-.1-.2 0-1Z"/></svg>