<svg xmlns="http://www.w3.org/2000/svg" viewBox="0 0 1200 900" width="1200" height="900" preserveAspectRatio="xMidYMid slice"><defs><linearGradient id="sky" x1="0" y1="0" x2="0" y2="1"><stop offset="0" stop-color="#0b3a37"/><stop offset=".45" stop-color="#2c6a5c"/><stop offset=".78" stop-color="#e8a565"/><stop offset="1" stop-color="#f9dba4"/></linearGradient>
<radialGradient id="sun"><stop offset="0" stop-color="#fff1c9" stop-opacity="1"/><stop offset=".3" stop-color="#fff1c9" stop-opacity=".5"/><stop offset="1" stop-color="#fff1c9" stop-opacity="0"/></radialGradient>
<linearGradient id="wat" x1="0" y1="0" x2="0" y2="1"><stop offset="0" stop-color="#f4c98b"/><stop offset="1" stop-color="#0d4a3a"/></linearGradient>
<linearGradient id="hg" x1="0" y1="0" x2="1" y2="1"><stop offset="0" stop-color="#0b3d2d"/><stop offset="1" stop-color="#1c7a5c"/></linearGradient>
<linearGradient id="warm" x1="0" y1="0" x2="1" y2="1"><stop offset="0" stop-color="#f7d08a"/><stop offset="1" stop-color="#e58f57"/></linearGradient>
<linearGradient id="fade" x1="0" y1="0" x2="0" y2="1"><stop offset="0" stop-color="#fff" stop-opacity=".35"/><stop offset="1" stop-color="#fff" stop-opacity="0"/></linearGradient>
<filter id="sh" x="-25%" y="-25%" width="150%" height="160%"><feDropShadow dx="0" dy="16" stdDeviation="16" flood-color="#021a12" flood-opacity=".38"/></filter></defs><rect width="1200" height="900" fill="url(#sky)"/><circle cx="792" cy="621" r="360" fill="url(#sun)"/><circle cx="792" cy="630" r="58" fill="#fff1c9"/><rect x="411.0" y="501.6" width="73.2" height="164.4" rx="5" fill="#0d4131"/><rect x="445.0" y="553.6" width="10" height="14" rx="2" fill="#ffd987" opacity="0.46"/><rect x="421.0" y="589.6" width="10" height="14" rx="2" fill="#ffd987" opacity="0.58"/><rect x="490.2" y="473.2" width="73.2" height="192.8" rx="5" fill="#06281f"/><rect x="548.2" y="525.2" width="10" height="14" rx="2" fill="#ffd987" opacity="0.87"/><rect x="524.2" y="561.2" width="10" height="14" rx="2" fill="#ffd987" opacity="0.47"/><rect x="569.4" y="395.0" width="73.2" height="271.0" rx="5" fill="#0d4131"/><rect x="579.4" y="447.0" width="10" height="14" rx="2" fill="#ffd987" opacity="0.52"/><rect x="603.4" y="447.0" width="10" height="14" rx="2" fill="#ffd987" opacity="0.98"/><rect x="603.4" y="483.0" width="10" height="14" rx="2" fill="#ffd987" opacity="0.73"/><rect x="579.4" y="627.0" width="10" height="14" rx="2" fill="#ffd987" opacity="0.92"/><rect x="648.6" y="374.2" width="73.2" height="291.8" rx="5" fill="#06281f"/><rect x="682.6" y="390.2" width="10" height="14" rx="2" fill="#ffd987" opacity="0.91"/><rect x="658.6" y="426.2" width="10" height="14" rx="2" fill="#ffd987" opacity="0.48"/><rect x="658.6" y="462.2" width="10" height="14" rx="2" fill="#ffd987" opacity="0.89"/><rect x="706.6" y="462.2" width="10" height="14" rx="2" fill="#ffd987" opacity="0.61"/><rect x="706.6" y="498.2" width="10" height="14" rx="2" fill="#ffd987" opacity="0.79"/><rect x="658.6" y="534.2" width="10" height="14" rx="2" fill="#ffd987" opacity="0.85"/><rect x="682.6" y="534.2" width="10" height="14" rx="2" fill="#ffd987" opacity="0.93"/><rect x="706.6" y="570.2" width="10" height="14" rx="2" fill="#ffd987" opacity="0.49"/><rect x="682.6" y="606.2" width="10" height="14" rx="2" fill="#ffd987" opacity="0.56"/><rect x="682.6" y="642.2" width="10" height="14" rx="2" fill="#ffd987" opacity="0.47"/><rect x="727.8" y="360.3" width="73.2" height="305.7" rx="5" fill="#0d4131"/><rect x="761.8" y="520.3" width="10" height="14" rx="2" fill="#ffd987" opacity="0.62"/><rect x="785.8" y="556.3" width="10" height="14" rx="2" fill="#ffd987" opacity="0.68"/><rect x="761.8" y="592.3" width="10" height="14" rx="2" fill="#ffd987" opacity="0.79"/><rect x="737.8" y="628.3" width="10" height="14" rx="2" fill="#ffd987" opacity="0.80"/><rect x="807.0" y="322.0" width="73.2" height="344.0" rx="5" fill="#06281f"/><rect x="865.0" y="338.0" width="10" height="14" rx="2" fill="#ffd987" opacity="0.48"/><rect x="865.0" y="374.0" width="10" height="14" rx="2" fill="#ffd987" opacity="0.70"/><rect x="841.0" y="410.0" width="10" height="14" rx="2" fill="#ffd987" opacity="0.65"/><rect x="865.0" y="410.0" width="10" height="14" rx="2" fill="#ffd987" opacity="0.65"/><rect x="841.0" y="446.0" width="10" height="14" rx="2" fill="#ffd987" opacity="0.66"/><rect x="817.0" y="482.0" width="10" height="14" rx="2" fill="#ffd987" opacity="0.76"/><rect x="865.0" y="482.0" width="10" height="14" rx="2" fill="#ffd987" opacity="0.57"/><rect x="841.0" y="518.0" width="10" height="14" rx="2" fill="#ffd987" opacity="0.55"/><rect x="841.0" y="554.0" width="10" height="14" rx="2" fill="#ffd987" opacity="0.63"/><rect x="865.0" y="554.0" width="10" height="14" rx="2" fill="#ffd987" opacity="0.91"/><rect x="865.0" y="590.0" width="10" height="14" rx="2" fill="#ffd987" opacity="0.64"/><rect x="886.2" y="301.3" width="73.2" height="364.7" rx="5" fill="#0d4131"/><rect x="896.2" y="317.3" width="10" height="14" rx="2" fill="#ffd987" opacity="0.74"/><rect x="920.2" y="317.3" width="10" height="14" rx="2" fill="#ffd987" opacity="0.89"/><rect x="896.2" y="353.3" width="10" height="14" rx="2" fill="#ffd987" opacity="0.60"/><rect x="944.2" y="389.3" width="10" height="14" rx="2" fill="#ffd987" opacity="0.61"/><rect x="920.2" y="425.3" width="10" height="14" rx="2" fill="#ffd987" opacity="0.64"/><rect x="896.2" y="497.3" width="10" height="14" rx="2" fill="#ffd987" opacity="0.45"/><rect x="920.2" y="569.3" width="10" height="14" rx="2" fill="#ffd987" opacity="0.86"/><rect x="944.2" y="605.3" width="10" height="14" rx="2" fill="#ffd987" opacity="0.64"/><rect x="896.2" y="641.3" width="10" height="14" rx="2" fill="#ffd987" opacity="0.49"/><rect x="944.2" y="641.3" width="10" height="14" rx="2" fill="#ffd987" opacity="0.90"/><rect x="965.4" y="289.5" width="73.2" height="376.5" rx="5" fill="#06281f"/><rect x="975.4" y="377.5" width="10" height="14" rx="2" fill="#ffd987" opacity="0.86"/><rect x="999.4" y="377.5" width="10" height="14" rx="2" fill="#ffd987" opacity="0.61"/><rect x="1023.4" y="449.5" width="10" height="14" rx="2" fill="#ffd987" opacity="0.92"/><rect x="975.4" y="521.5" width="10" height="14" rx="2" fill="#ffd987" opacity="0.74"/><rect x="1023.4" y="521.5" width="10" height="14" rx="2" fill="#ffd987" opacity="0.89"/><rect x="975.4" y="593.5" width="10" height="14" rx="2" fill="#ffd987" opacity="0.80"/><rect x="1023.4" y="593.5" width="10" height="14" rx="2" fill="#ffd987" opacity="0.60"/><rect x="975.4" y="629.5" width="10" height="14" rx="2" fill="#ffd987" opacity="0.74"/><rect x="1044.6" y="162.1" width="73.2" height="503.9" rx="5" fill="#0d4131"/><rect x="1054.6" y="178.1" width="10" height="14" rx="2" fill="#ffd987" opacity="0.48"/><rect x="1078.6" y="178.1" width="10" height="14" rx="2" fill="#ffd987" opacity="0.52"/><rect x="1102.6" y="178.1" width="10" height="14" rx="2" fill="#ffd987" opacity="0.99"/><rect x="1078.6" y="214.1" width="10" height="14" rx="2" fill="#ffd987" opacity="0.73"/><rect x="1102.6" y="214.1" width="10" height="14" rx="2" fill="#ffd987" opacity="0.62"/><rect x="1078.6" y="286.1" width="10" height="14" rx="2" fill="#ffd987" opacity="0.63"/><rect x="1102.6" y="286.1" width="10" height="14" rx="2" fill="#ffd987" opacity="0.76"/><rect x="1102.6" y="322.1" width="10" height="14" rx="2" fill="#ffd987" opacity="0.55"/><rect x="1078.6" y="502.1" width="10" height="14" rx="2" fill="#ffd987" opacity="0.74"/><rect x="1054.6" y="538.1" width="10" height="14" rx="2" fill="#ffd987" opacity="0.68"/><rect x="1078.6" y="610.1" width="10" height="14" rx="2" fill="#ffd987" opacity="0.71"/><rect x="1102.6" y="610.1" width="10" height="14" rx="2" fill="#ffd987" opacity="0.90"/><rect x="1123.8" y="139.1" width="73.2" height="526.9" rx="5" fill="#06281f"/><rect x="1181.8" y="191.1" width="10" height="14" rx="2" fill="#ffd987" opacity="0.77"/><rect x="1133.8" y="227.1" width="10" height="14" rx="2" fill="#ffd987" opacity="0.53"/><rect x="1181.8" y="227.1" width="10" height="14" rx="2" fill="#ffd987" opacity="0.50"/><rect x="1133.8" y="263.1" width="10" height="14" rx="2" fill="#ffd987" opacity="0.93"/><rect x="1157.8" y="263.1" width="10" height="14" rx="2" fill="#ffd987" opacity="0.46"/><rect x="1133.8" y="299.1" width="10" height="14" rx="2" fill="#ffd987" opacity="0.91"/><rect x="1133.8" y="371.1" width="10" height="14" rx="2" fill="#ffd987" opacity="0.87"/><rect x="1133.8" y="407.1" width="10" height="14" rx="2" fill="#ffd987" opacity="0.86"/><rect x="1181.8" y="407.1" width="10" height="14" rx="2" fill="#ffd987" opacity="0.63"/><rect x="1181.8" y="443.1" width="10" height="14" rx="2" fill="#ffd987" opacity="0.55"/><rect x="1133.8" y="479.1" width="10" height="14" rx="2" fill="#ffd987" opacity="0.79"/><rect x="1157.8" y="551.1" width="10" height="14" rx="2" fill="#ffd987" opacity="0.73"/><rect x="1181.8" y="587.1" width="10" height="14" rx="2" fill="#ffd987" opacity="0.83"/><rect y="666" width="1200" height="234" fill="url(#wat)"/><g opacity=".28"><rect x="411.0" y="666.0" width="73.2" height="99.8" rx="5" fill="#0d4131"/><rect x="490.2" y="666.0" width="73.2" height="131.4" rx="5" fill="#06281f"/><rect x="569.4" y="666.0" width="73.2" height="146.2" rx="5" fill="#0d4131"/><rect x="648.6" y="666.0" width="73.2" height="178.9" rx="5" fill="#06281f"/><rect x="727.8" y="666.0" width="73.2" height="202.7" rx="5" fill="#0d4131"/><rect x="807.0" y="666.0" width="73.2" height="191.4" rx="5" fill="#06281f"/><rect x="886.2" y="666.0" width="73.2" height="207.2" rx="5" fill="#0d4131"/><rect x="965.4" y="666.0" width="73.2" height="286.7" rx="5" fill="#06281f"/><rect x="1044.6" y="666.0" width="73.2" height="264.8" rx="5" fill="#0d4131"/><rect x="1123.8" y="666.0" width="73.2" height="283.2" rx="5" fill="#06281f"/></g><rect y="666" width="1200" height="234" fill="url(#wat)" opacity=".55"/><rect x="0" y="680" width="60" height="3" rx="1.5" fill="#fff" opacity=".18"/><rect x="97" y="706" width="101" height="3" rx="1.5" fill="#fff" opacity=".18"/><rect x="194" y="732" width="142" height="3" rx="1.5" fill="#fff" opacity=".18"/><rect x="291" y="758" width="183" height="3" rx="1.5" fill="#fff" opacity=".18"/><rect x="388" y="784" width="224" height="3" rx="1.5" fill="#fff" opacity=".18"/><rect x="485" y="810" width="85" height="3" rx="1.5" fill="#fff" opacity=".18"/><rect x="582" y="836" width="126" height="3" rx="1.5" fill="#fff" opacity=".18"/><rect x="679" y="862" width="167" height="3" rx="1.5" fill="#fff" opacity=".18"/><rect x="776" y="888" width="208" height="3" rx="1.5" fill="#fff" opacity=".18"/><path d="M432,522 L600,450 L744,477 L912,306 L1104,144" fill="none" stroke="#e9b54a" stroke-width="9" stroke-linecap="round" stroke-linejoin="round"/><circle cx="432" cy="522" r="8" fill="#e9b54a"/><circle cx="600" cy="450" r="8" fill="#e9b54a"/><circle cx="744" cy="477" r="8" fill="#e9b54a"/><circle cx="912" cy="306" r="8" fill="#e9b54a"/><path d="M1092,176 L1104,144 L1071,151" fill="none" stroke="#e9b54a" stroke-width="9" stroke-linecap="round" stroke-linejoin="round"/><g transform="translate(108.0 270.0) rotate(-3 300 189)" filter="url(#sh)"><rect width="600.0" height="378.0" rx="18" fill="#fff"/><path d="M0 34V18a18 18 0 0 1 18-18h564.0a18 18 0 0 1 18 18v16Z" fill="#e9f0ec"/><circle cx="22" cy="17" r="5" fill="#f28b82"/><circle cx="39" cy="17" r="5" fill="#f6c65b"/><circle cx="56" cy="17" r="5" fill="#7ed39a"/><rect x="132" y="10" width="300" height="15" rx="7" fill="#fff"/><rect x="30" y="53" width="540" height="151" rx="12" fill="url(#hg)"/><rect x="60" y="83" width="228" height="19" rx="9" fill="#fff"/><rect x="60" y="110" width="180" height="19" rx="9" fill="#e9b54a"/><rect x="60" y="144" width="156" height="23" rx="11" fill="#e9b54a"/><circle cx="432" cy="129" r="49" fill="url(#warm)"/><rect x="30" y="227" width="168" height="98" rx="10" fill="#f1f6f3"/><rect x="42" y="239" width="54" height="54" rx="8" fill="#17654c"/><rect x="42" y="280" width="120" height="7" rx="3.5" fill="#c9d8d0"/><rect x="42" y="295" width="84" height="7" rx="3.5" fill="#dce7e1"/><rect x="216" y="227" width="168" height="98" rx="10" fill="#f1f6f3"/><rect x="228" y="239" width="54" height="54" rx="8" fill="#e9b54a"/><rect x="228" y="280" width="120" height="7" rx="3.5" fill="#c9d8d0"/><rect x="228" y="295" width="84" height="7" rx="3.5" fill="#dce7e1"/><rect x="402" y="227" width="168" height="98" rx="10" fill="#f1f6f3"/><rect x="414" y="239" width="54" height="54" rx="8" fill="#17654c"/><rect x="414" y="280" width="120" height="7" rx="3.5" fill="#c9d8d0"/><rect x="414" y="295" width="84" height="7" rx="3.5" fill="#dce7e1"/></g><g transform="translate(792.0 306.0) rotate(4 114 198)" filter="url(#sh)"><rect width="228.0" height="396.0" rx="34" fill="#0a1f18"/><rect x="9" y="9" width="210" height="378" rx="27" fill="#fff"/><rect x="82" y="16" width="64" height="11" rx="6" fill="#0a1f18"/><circle cx="46" cy="59" r="16" fill="url(#hg)"/><rect x="73" y="50" width="82" height="7" rx="3" fill="#c9d8d0"/><rect x="73" y="64" width="55" height="6" rx="3" fill="#dce7e1"/><rect x="18" y="91" width="192" height="166" rx="14" fill="url(#warm)"/><circle cx="114" cy="170" r="36" fill="#fff" opacity=".35"/><path transform="translate(36.480000000000004 280.32) scale(10.26)" fill="#e9b54a" d="M0 .9C-1.2-.1-.6-.9 0-.35.6-.9 1.2-.1 0 .9Z"/><circle cx="68" cy="280" r="9" fill="none" stroke="#0b3d2d" stroke-width="3"/><rect x="23" y="303" width="137" height="7" rx="3" fill="#c9d8d0"/><rect x="23" y="319" width="91" height="7" rx="3" fill="#dce7e1"/></g><g filter="url(#sh)" transform="translate(600.0 594.0)"><rect width="300.0" height="180.0" rx="18" fill="#fff"/><rect x="30" y="115" width="31" height="43" rx="7" fill="#0b3d2d"/><rect x="64" y="99" width="31" height="60" rx="7" fill="#17654c"/><rect x="99" y="89" width="31" height="70" rx="7" fill="#0b3d2d"/><rect x="133" y="81" width="31" height="78" rx="7" fill="#17654c"/><rect x="167" y="56" width="31" height="102" rx="7" fill="#0b3d2d"/><rect x="201" y="49" width="31" height="110" rx="7" fill="#17654c"/><rect x="236" y="44" width="31" height="114" rx="7" fill="#0b3d2d"/><path d="M45,101 L80,85 L114,75 L148,67 L183,42 L217,35 L251,30" fill="none" stroke="#e9b54a" stroke-width="5" stroke-linecap="round" stroke-linejoin="round"/><circle cx="45" cy="101" r="6" fill="#e9b54a"/><circle cx="80" cy="85" r="6" fill="#e9b54a"/><circle cx="114" cy="75" r="6" fill="#e9b54a"/><circle cx="148" cy="67" r="6" fill="#e9b54a"/><circle cx="183" cy="42" r="6" fill="#e9b54a"/><circle cx="217" cy="35" r="6" fill="#e9b54a"/><circle cx="251" cy="30" r="6" fill="#e9b54a"/></g><path transform="translate(672.0000000000001 198.0) scale(26)" opacity="1" fill="#e9b54a" d="M0-1C.1-.2.2-.1 1 0 .2.1.1.2 0 1-.1.2-.2.1-1 0-.2-.1-.1-.2 0-1Z"/><path transform="translate(1080.0 378.0) scale(16)" opacity="0.8" fill="#fff" d="M0-1C.1-.2.2-.1 1 0 .2.1.1.2 0 1-.1.2-.2.1-1 0-.2-.1-.1-.2 0-1Z"/><path transform="translate(360.0 144.0) scale(12)" opacity="0.7" fill="#fff" d="M0-1C.1-.2.2-.1 1 0 .2.1.1.2 0 1-.1.2-.2.1-1 0-.2-.1-.1-.2 0-1Z"/></svg>