<svg xmlns="http://www.w3.org/2000/svg" viewBox="0 0 800 600" width="800" height="600" preserveAspectRatio="xMidYMid slice"><defs><linearGradient id="sky" x1="0" y1="0" x2="0" y2="1"><stop offset="0" stop-color="#0b3a37"/><stop offset=".45" stop-color="#2c6a5c"/><stop offset=".78" stop-color="#e8a565"/><stop offset="1" stop-color="#f9dba4"/></linearGradient>
<radialGradient id="sun"><stop offset="0" stop-color="#fff1c9" stop-opacity="1"/><stop offset=".3" stop-color="#fff1c9" stop-opacity=".5"/><stop offset="1" stop-color="#fff1c9" stop-opacity="0"/></radialGradient>
<linearGradient id="wat" x1="0" y1="0" x2="0" y2="1"><stop offset="0" stop-color="#f4c98b"/><stop offset="1" stop-color="#0d4a3a"/></linearGradient>
<linearGradient id="hg" x1="0" y1="0" x2="1" y2="1"><stop offset="0" stop-color="#0b3d2d"/><stop offset="1" stop-color="#1c7a5c"/></linearGradient>
<linearGradient id="warm" x1="0" y1="0" x2="1" y2="1"><stop offset="0" stop-color="#f7d08a"/><stop offset="1" stop-color="#e58f57"/></linearGradient>
<linearGradient id="fade" x1="0" y1="0" x2="0" y2="1"><stop offset="0" stop-color="#fff" stop-opacity=".35"/><stop offset="1" stop-color="#fff" stop-opacity="0"/></linearGradient>
<filter id="sh" x="-25%" y="-25%" width="150%" height="160%"><feDropShadow dx="0" dy="16" stdDeviation="16" flood-color="#021a12" flood-opacity=".38"/></filter></defs><rect width="800" height="600" fill="url(#sky)"/><circle cx="240" cy="450" r="300" fill="url(#sun)"/><circle cx="240" cy="456" r="39" fill="#fff1c9"/><rect y="480" width="800" height="120" fill="url(#wat)"/><rect x="0" y="494" width="60" height="3" rx="1.5" fill="#fff" opacity=".18"/><rect x="97" y="507" width="101" height="3" rx="1.5" fill="#fff" opacity=".18"/><rect x="194" y="521" width="142" height="3" rx="1.5" fill="#fff" opacity=".18"/><rect x="291" y="534" width="183" height="3" rx="1.5" fill="#fff" opacity=".18"/><rect x="388" y="547" width="224" height="3" rx="1.5" fill="#fff" opacity=".18"/><rect x="485" y="561" width="85" height="3" rx="1.5" fill="#fff" opacity=".18"/><rect x="582" y="574" width="126" height="3" rx="1.5" fill="#fff" opacity=".18"/><rect x="39" y="587" width="167" height="3" rx="1.5" fill="#fff" opacity=".18"/><rect x="136" y="601" width="208" height="3" rx="1.5" fill="#fff" opacity=".18"/><g transform="translate(64.0 108.0) rotate(-5 80 168)" filter="url(#sh)"><rect width="160.0" height="336.00000000000006" rx="24" fill="#0a1f18"/><rect x="6" y="6" width="147" height="323" rx="19" fill="#fff"/><rect x="58" y="11" width="45" height="8" rx="4" fill="#0a1f18"/><circle cx="32" cy="42" r="11" fill="url(#hg)"/><rect x="51" y="35" width="58" height="5" rx="2" fill="#c9d8d0"/><rect x="51" y="45" width="38" height="4" rx="2" fill="#dce7e1"/><rect x="13" y="64" width="134" height="141" rx="10" fill="url(#warm)"/><circle cx="80" cy="131" r="26" fill="#fff" opacity=".35"/><path transform="translate(25.6 221.12) scale(7.199999999999999)" fill="#e9b54a" d="M0 .9C-1.2-.1-.6-.9 0-.35.6-.9 1.2-.1 0 .9Z"/><circle cx="48" cy="221" r="6" fill="none" stroke="#0b3d2d" stroke-width="3"/><rect x="16" y="237" width="96" height="5" rx="2" fill="#c9d8d0"/><rect x="16" y="248" width="64" height="5" rx="2" fill="#dce7e1"/></g><g transform="translate(240.0 60.0) rotate(0 88 186)" filter="url(#sh)"><rect width="176.0" height="372.0" rx="26" fill="#0a1f18"/><rect x="7" y="7" width="162" height="358" rx="21" fill="#fff"/><rect x="63" y="12" width="49" height="9" rx="4" fill="#0a1f18"/><circle cx="35" cy="46" r="12" fill="url(#hg)"/><rect x="56" y="39" width="63" height="5" rx="3" fill="#c9d8d0"/><rect x="56" y="49" width="42" height="4" rx="2" fill="#dce7e1"/><rect x="14" y="70" width="148" height="156" rx="11" fill="url(#hg)"/><circle cx="88" cy="145" r="28" fill="#fff" opacity=".35"/><path transform="translate(28.16 244.23999999999998) scale(7.92)" fill="#e9b54a" d="M0 .9C-1.2-.1-.6-.9 0-.35.6-.9 1.2-.1 0 .9Z"/><circle cx="53" cy="244" r="7" fill="none" stroke="#0b3d2d" stroke-width="3"/><rect x="18" y="262" width="106" height="5" rx="3" fill="#c9d8d0"/><rect x="18" y="274" width="70" height="5" rx="3" fill="#dce7e1"/></g><g transform="translate(432.0 108.0) rotate(5 80 168)" filter="url(#sh)"><rect width="160.0" height="336.00000000000006" rx="24" fill="#0a1f18"/><rect x="6" y="6" width="147" height="323" rx="19" fill="#fff"/><rect x="58" y="11" width="45" height="8" rx="4" fill="#0a1f18"/><circle cx="32" cy="42" r="11" fill="url(#hg)"/><rect x="51" y="35" width="58" height="5" rx="2" fill="#c9d8d0"/><rect x="51" y="45" width="38" height="4" rx="2" fill="#dce7e1"/><rect x="13" y="64" width="134" height="141" rx="10" fill="url(#warm)"/><circle cx="80" cy="131" r="26" fill="#fff" opacity=".35"/><path transform="translate(25.6 221.12) scale(7.199999999999999)" fill="#e9b54a" d="M0 .9C-1.2-.1-.6-.9 0-.35.6-.9 1.2-.1 0 .9Z"/><circle cx="48" cy="221" r="6" fill="none" stroke="#0b3d2d" stroke-width="3"/><rect x="16" y="237" width="96" height="5" rx="2" fill="#c9d8d0"/><rect x="16" y="248" width="64" height="5" rx="2" fill="#dce7e1"/></g><path transform="translate(672.0 180.0) scale(30)" fill="#e9b54a" d="M0 .9C-1.2-.1-.6-.9 0-.35.6-.9 1.2-.1 0 .9Z"/><g filter="url(#sh)"><rect x="592.0" y="300.0" width="130" height="56" rx="28" fill="#fff"/><path d="M700.0 354.0 l8 16 l-22 -14Z" fill="#fff"/></g><circle cx="641" cy="328" r="4.5" fill="#0b3d2d" opacity="0.35"/><circle cx="657" cy="328" r="4.5" fill="#0b3d2d" opacity="0.65"/><circle cx="673" cy="328" r="4.5" fill="#0b3d2d" opacity="0.95"/><path transform="translate(160.0 60.0) scale(14)" opacity="1" fill="#fff" d="M0-1C.1-.2.2-.1 1 0 .2.1.1.2 0 1-.1.2-.2.1-1 0-.2-.1-.1-.2 0-1Z"/></svg>